<svg width="64" height="64" viewBox="0 0 64 64" fill="none" xmlns="http://www.w3.org/2000/svg">
<g id="team">
<path id="Vector" d="M62.2782 55.0737C63.4637 53.398 64.0692 51.3799 63.9935 49.3037C63.9071 46.9224 62.9305 44.6817 61.244 42.9956L57.0614 38.813C57.9227 35.6465 58.1761 32.3848 57.8124 29.1074C57.7552 28.5933 57.2919 28.2232 56.7772 28.2793C56.2626 28.3364 55.892 28.7998 55.9491 29.3145C56.2465 31.9927 56.0985 34.6597 55.5135 37.2647L54.1718 35.9229C53.4838 35.2349 52.5682 34.856 51.5946 34.856C50.6185 34.856 49.703 35.2349 49.0165 35.9234C47.5966 37.3447 47.5966 39.6572 49.017 41.0777L52.5394 44.5986C51.5555 46.1968 50.3802 47.6856 49.037 49.0298C43.1757 54.8911 34.7557 57.3018 26.7313 55.5108L28.0751 54.167C28.7631 53.4785 29.142 52.564 29.142 51.5908C29.142 50.6152 28.7626 49.6997 28.0746 49.0132C26.6542 47.5933 24.3422 47.5933 22.9198 49.0132L19.3929 52.5396C17.7845 51.5518 16.2914 50.3745 14.9481 49.0298C13.5336 47.6152 12.3021 46.0357 11.2855 44.3364C11.2758 44.3164 11.2684 44.2954 11.2567 44.2764C10.8597 43.6035 10.4974 42.916 10.1781 42.229C9.7157 41.2442 9.31629 40.2149 8.99256 39.1704C8.97791 39.1236 8.95886 39.0791 8.93787 39.0361C8.02381 36.0396 7.703 32.9336 7.98621 29.8013C8.03308 29.2857 7.65271 28.8301 7.13709 28.7832C6.62293 28.7359 6.1659 29.1167 6.11902 29.6323C5.82556 32.8706 6.1322 36.0835 7.02771 39.1914L2.9906 43.2285C1.31287 44.9058 0.336794 47.1338 0.241579 49.5015C0.158571 51.5654 0.749391 53.5752 1.91638 55.249L1.82263 55.3428C1.11756 56.0479 0.729372 56.9849 0.729372 57.9815C0.729372 58.978 1.11756 59.9151 1.82263 60.6201L3.56091 62.3584C4.28797 63.086 5.24353 63.4497 6.1991 63.4497C7.15466 63.4497 8.10974 63.086 8.83728 62.3584L8.92127 62.2744C10.5126 63.4014 12.3969 63.9976 14.3334 63.9976C14.9091 63.9976 15.4896 63.9448 16.0678 63.8379C16.577 63.7437 16.9135 63.2544 16.8192 62.7456C16.725 62.2363 16.2347 61.9009 15.7269 61.9942C13.8129 62.3482 11.8759 61.9575 10.2733 60.9229L12.2479 58.9483C12.7323 58.4639 13.0668 57.8701 13.2289 57.2222C14.6136 58.1836 16.5345 58.0493 17.7675 56.8159L20.1962 54.3877C20.1976 54.3862 20.1991 54.3848 20.2011 54.3828L24.245 50.3394C24.9359 49.6494 26.0595 49.6494 26.7499 50.3399C27.0834 50.6724 27.267 51.1167 27.267 51.5908C27.267 52.063 27.0829 52.5073 26.7489 52.8413L24.2489 55.3413C24.245 55.3447 24.2421 55.3482 24.2386 55.3516L19.6761 59.9136C19.4281 60.1616 19.162 60.3936 18.8846 60.6035C18.4716 60.9155 18.39 61.5034 18.7025 61.9165C18.8866 62.1602 19.1669 62.2886 19.4506 62.2886C19.6478 62.2886 19.8466 62.2266 20.0155 62.0986C20.3612 61.8374 20.6932 61.5484 21.0018 61.2393L25.183 57.0591C27.4325 57.6685 29.7196 57.9663 31.9901 57.9663C34.4301 57.9663 36.849 57.6206 39.1771 56.9507L43.2313 61.0064C44.9091 62.6836 47.1371 63.6597 49.5052 63.7544C49.6327 63.7598 49.7596 63.7622 49.8866 63.7622C51.8158 63.7622 53.683 63.1738 55.2533 62.0791L55.348 62.1738C56.0751 62.9009 57.0306 63.2647 57.9862 63.2647C58.9418 63.2647 59.8969 62.9009 60.6244 62.1738L62.3627 60.4356C63.0677 59.7305 63.4559 58.7935 63.4559 57.7969C63.4559 56.8003 63.0677 55.8633 62.3627 55.1587L62.2782 55.0737ZM2.11463 49.5772C2.1908 47.6812 2.97254 45.8975 4.3158 44.5542L7.68836 41.1821C8.13269 42.3584 8.66297 43.5025 9.27429 44.6021L7.41297 46.4629C6.74158 47.1333 6.37195 48.0259 6.37195 48.9756C6.37195 49.69 6.58093 50.3721 6.97058 50.9517C6.33338 51.1089 5.72986 51.4361 5.23279 51.9326L3.26795 53.8975C2.45838 52.6172 2.05261 51.1157 2.11463 49.5772ZM10.9222 57.6226L8.19715 60.3472C8.19715 60.3477 8.19666 60.3477 8.19617 60.3482L7.5116 61.0327C6.78797 61.7564 5.61023 61.7564 4.88611 61.0327L3.14783 59.2944C2.79724 58.9439 2.60388 58.4776 2.60388 57.9815C2.60388 57.4859 2.79724 57.0195 3.14783 56.669L3.81824 55.9986C3.82068 55.9961 3.82312 55.9942 3.82507 55.9917L6.55847 53.2588C6.92029 52.897 7.39539 52.7158 7.87097 52.7158C8.34412 52.7158 8.81677 52.8955 9.1781 53.2539L10.8387 54.9136L10.9222 54.9971C11.2728 55.3477 11.4657 55.814 11.4657 56.3096C11.4662 56.8057 11.2728 57.272 10.9222 57.6226ZM16.4418 55.4902C16.1249 55.8076 15.703 55.9824 15.2548 55.9824C14.8065 55.9824 14.3846 55.8076 14.0678 55.4902L12.2572 53.6802C12.2572 53.6802 12.2479 53.6714 12.2479 53.6709L11.4384 52.8613L10.5096 51.9331C10.5077 51.9312 10.5053 51.9292 10.5033 51.9273L8.73865 50.1631C8.42127 49.8462 8.24646 49.4243 8.24646 48.9756C8.24646 48.5274 8.42127 48.106 8.73865 47.7891L10.2772 46.2505C11.1307 47.5459 12.1019 48.7681 13.1791 49.8985L12.6971 50.3804C12.3309 50.7466 12.3309 51.3399 12.6971 51.7061C12.8803 51.8892 13.1205 51.9805 13.3602 51.9805C13.6 51.9805 13.8402 51.8892 14.0233 51.7061L14.5209 51.2085C15.6156 52.2051 16.7914 53.105 18.0341 53.8985L16.4418 55.4902ZM50.3431 37.2481C50.6757 36.9146 51.12 36.731 51.5941 36.731C52.0677 36.731 52.5121 36.9151 52.8461 37.2486L59.9183 44.3213C62.4388 46.8418 62.8065 50.7959 60.9271 53.7227L58.9525 51.7481C58.4584 51.2544 57.8593 50.9287 57.2264 50.77C57.639 50.1792 57.8622 49.4776 57.8622 48.7417C57.8622 47.7925 57.4926 46.9004 56.8212 46.229L50.3427 39.752C49.6527 39.062 49.6527 37.939 50.3431 37.2481ZM49.8954 50.8111L50.3837 51.2993C50.5668 51.4819 50.807 51.5737 51.0468 51.5737C51.2865 51.5737 51.5267 51.4819 51.7098 51.2988C52.0756 50.9326 52.0756 50.3394 51.7094 49.9732L51.2045 49.4683C52.2035 48.3716 53.1044 47.1968 53.8973 45.957L55.4955 47.5547C55.8129 47.8716 55.9872 48.293 55.9872 48.7417C55.9872 49.19 55.8129 49.6113 55.4955 49.9287L53.6805 51.7437C53.6791 51.7451 53.6771 51.7466 53.6757 51.7481L51.9374 53.4863C51.9354 53.4878 51.934 53.4898 51.9325 53.4912L50.1669 55.2573C49.5121 55.9116 48.4471 55.9116 47.7919 55.2573L46.2426 53.7075C47.5321 52.8613 48.7557 51.895 49.8954 50.8111ZM49.58 61.8814C47.684 61.8052 45.9003 61.0235 44.557 59.6807L41.1747 56.2979C41.8026 56.0615 42.4222 55.8008 43.0282 55.5171C43.5546 55.2715 44.0809 55.0029 44.599 54.7163L46.4662 56.583C47.6844 57.8008 49.5731 57.9478 50.953 57.0254C51.1141 57.6777 51.4496 58.2764 51.9369 58.7637L53.9008 60.7271C52.62 61.5366 51.1176 61.9424 49.58 61.8814ZM61.037 59.1094L59.2982 60.8477C58.5751 61.5713 57.3973 61.5718 56.6732 60.8477L53.2631 57.4375C52.912 57.0869 52.7191 56.6206 52.7191 56.125C52.7191 55.6304 52.9115 55.1651 53.2606 54.815L55.0038 53.0718C55.3656 52.7114 55.8397 52.5313 56.3138 52.5313C56.7889 52.5313 57.2645 52.7119 57.6263 53.0737L60.3676 55.815C60.368 55.815 60.3685 55.8154 60.3685 55.8159L61.037 56.4839C61.3881 56.8345 61.5809 57.3008 61.5809 57.7969C61.5809 58.293 61.3876 58.7588 61.037 59.1094Z" fill="#C3CEE2"/>
<path id="Vector_2" d="M9.82974 28.0675C10.5177 28.7555 11.4328 29.1344 12.4059 29.1344C13.382 29.1344 14.2975 28.7555 14.984 28.067C16.404 26.6456 16.404 24.3331 14.9835 22.9127L11.4455 19.3751C12.3615 17.8859 13.445 16.4933 14.6764 15.2223C14.7028 15.2008 14.7287 15.1784 14.7536 15.1534C14.7843 15.1227 14.8117 15.0895 14.8376 15.0553C14.8742 15.0182 14.9113 14.9806 14.9484 14.943C16.3478 13.5441 17.9069 12.3263 19.5832 11.3185C19.631 11.2999 19.6779 11.2775 19.7233 11.2506C20.3903 10.8566 21.0773 10.4938 21.7677 10.172C22.756 9.70911 23.7853 9.31019 24.8278 8.98694C24.8825 8.96985 24.9342 8.94691 24.984 8.92054C28.9997 7.70374 33.2189 7.55286 37.2907 8.46985L35.9318 9.82874C35.2428 10.5172 34.8634 11.4323 34.8634 12.4049C34.8634 13.3795 35.2433 14.295 35.9318 14.9821C37.3527 16.403 39.6647 16.403 41.0851 14.9821L44.6188 11.4489C46.2165 12.4327 47.7003 13.6051 49.0368 14.943C50.5446 16.4518 51.8429 18.1437 52.8961 19.9713C53.3078 20.6871 54.4796 23.1627 54.9875 24.7238C55.0006 24.7931 55.0221 24.8605 55.0509 24.9254C55.0514 24.9269 55.0519 24.9279 55.0519 24.9288C55.2404 25.5514 55.6134 25.485 55.9079 25.485H55.9088C56.1486 25.4845 56.3878 25.3932 56.5709 25.2106L61.0158 20.7672C62.6935 19.0895 63.6696 16.8619 63.7643 14.4938C63.8473 12.4303 63.2565 10.42 62.0895 8.74622L62.1833 8.65247C62.8878 7.94788 63.276 7.01087 63.276 6.0138C63.276 5.01722 62.8878 4.08021 62.1833 3.37562L60.445 1.63733C58.9899 0.182745 56.6232 0.182745 55.1681 1.63733L55.0841 1.72132C53.4084 0.535772 51.3918 -0.0701849 49.3126 0.00647525C46.9308 0.0933893 44.6901 1.06995 43.0036 2.75648L38.8376 6.92249C34.2248 5.66517 29.3966 5.69886 24.8024 7.01917L20.7687 2.9845C19.091 1.30726 16.8629 0.331182 14.4948 0.236456C12.4333 0.15296 10.421 0.744268 8.74673 1.91126L8.65298 1.81702C7.1979 0.362432 4.8312 0.362921 3.37612 1.81702L1.63833 3.5553C0.933254 4.25989 0.54507 5.19691 0.54507 6.19349C0.54507 7.19056 0.933254 8.12757 1.63833 8.83216L1.7228 8.91663C0.536769 10.5929 -0.0682112 12.611 0.00698405 14.6871C0.0934099 17.0685 1.06997 19.3087 2.7565 20.9952L9.82974 28.0675ZM51.7189 10.2853C51.7316 10.298 51.7443 10.3117 51.7575 10.3243L55.2668 13.8322C55.5841 14.1495 55.7589 14.5714 55.7589 15.0197C55.7589 15.4684 55.5846 15.8898 55.2668 16.2067L53.7252 17.7482C52.8737 16.4523 51.9035 15.2296 50.8268 14.0968L51.3087 13.6154C51.675 13.2492 51.675 12.6554 51.3087 12.2897C50.9425 11.9235 50.3488 11.9235 49.9831 12.2897L49.4875 12.7853C48.3932 11.7867 47.2189 10.8854 45.9777 10.0909L47.5636 8.50501C48.2184 7.85023 49.2843 7.85023 49.9391 8.50501L51.7189 10.2853ZM61.8913 14.4186C61.8156 16.3146 61.0338 18.0978 59.6906 19.441L56.2931 22.837C55.8117 21.5607 55.1051 20.129 54.7218 19.4034L56.5919 17.5328C57.2638 16.8619 57.6334 15.9699 57.6334 15.0201C57.6334 14.3058 57.4245 13.6242 57.0348 13.0441C57.672 12.8868 58.276 12.5597 58.7731 12.0626L60.7375 10.0983C61.5475 11.379 61.9533 12.88 61.8913 14.4186ZM57.8068 2.42005C58.2824 2.42005 58.7575 2.6012 59.1193 2.96302L60.8581 4.7013C61.2086 5.05189 61.4015 5.51771 61.4015 6.0138C61.4015 6.50989 61.2086 6.9762 60.8581 7.32679L60.1759 8.00892C60.174 8.01087 60.1715 8.01282 60.1701 8.01478L57.4474 10.7369C56.7238 11.4606 55.546 11.4606 54.8224 10.7369L53.0841 8.99866C52.36 8.27454 52.36 7.09681 53.0836 6.37317L56.4943 2.96302C56.8561 2.60071 57.3312 2.42005 57.8068 2.42005ZM44.3297 4.08167C46.8507 1.56067 50.8053 1.193 53.7331 3.07288L51.758 5.04749C51.2638 5.54163 50.9376 6.14124 50.7794 6.77454C49.3947 5.81165 47.4718 5.94544 46.2379 7.17933L39.7604 13.6564C39.0705 14.3463 37.9479 14.3463 37.257 13.6559C36.9225 13.3224 36.7389 12.8781 36.7389 12.4049C36.7389 11.9332 36.923 11.4889 37.258 11.1539L44.3297 4.08167ZM8.50601 16.4357C8.18862 16.1188 8.01431 15.6974 8.01431 15.2487C8.01431 14.8004 8.18862 14.379 8.50601 14.0617L13.8351 8.73353C14.4899 8.07874 15.5548 8.07874 16.2096 8.73353L17.7409 10.2643C16.4455 11.1163 15.2223 12.087 14.09 13.1642L13.6168 12.691C13.2506 12.3253 12.6574 12.3253 12.2912 12.691C11.9254 13.0573 11.9254 13.651 12.2912 14.0172L12.7785 14.504C11.7799 15.5992 10.88 16.776 10.0871 18.0167L8.50601 16.4357ZM14.4201 2.1095C16.3161 2.18519 18.1002 2.96692 19.4435 4.31019L22.8117 7.67884C21.6339 8.12317 20.4894 8.65345 19.3908 9.26282L17.5353 7.40735C16.3175 6.18958 14.4279 6.04261 13.048 6.96595C12.8869 6.31312 12.5514 5.71448 12.0636 5.22718L10.0993 3.26331C11.3805 2.45325 12.8825 2.04749 14.4201 2.1095ZM2.96402 4.88099L4.7023 3.14271C5.06411 2.78089 5.53921 2.60023 6.0148 2.60023C6.49038 2.60023 6.96548 2.78089 7.32779 3.14271L8.00698 3.82239C8.0104 3.82532 8.01382 3.82923 8.01724 3.83216L10.7384 6.55286C11.089 6.90394 11.2819 7.36976 11.2819 7.86585C11.2819 8.36194 11.089 8.82776 10.7384 9.17835L8.99966 10.9166C8.27603 11.6403 7.09829 11.6408 6.37417 10.9166L2.96402 7.50648C2.61294 7.15589 2.42007 6.68958 2.42007 6.19349C2.42007 5.69788 2.61294 5.23157 2.96402 4.88099ZM3.07437 10.2682L5.04849 12.2423C5.54263 12.7365 6.14224 13.0621 6.77505 13.2208C6.36245 13.8117 6.13931 14.5128 6.13931 15.2487C6.13931 16.1979 6.50943 17.0905 7.18032 17.7614L13.6579 24.2384C14.3478 24.9284 14.3478 26.0514 13.6574 26.7423C13.3244 27.0758 12.88 27.2594 12.4059 27.2594C11.9337 27.2594 11.4894 27.0758 11.1554 26.7418L4.08218 19.6691C1.56118 17.1486 1.194 13.195 3.07437 10.2682Z" fill="#C3CEE2"/>
<path id="Vector_3" d="M19.3696 35.3012L14.7685 39.3794C14.0425 40.0229 13.9751 41.1372 14.6186 41.8632L17.1538 44.7231C17.1567 44.726 17.1592 44.7295 17.1616 44.7329C17.1641 44.7353 17.166 44.7373 17.1685 44.7392L19.6001 47.4824C19.9468 47.874 20.4311 48.0737 20.9175 48.0737C21.3325 48.0737 21.749 47.9282 22.0835 47.6318L26.6846 43.5532C27.4111 42.9101 27.478 41.7954 26.8345 41.0693L21.8535 35.4506C21.21 34.7246 20.0957 34.6577 19.3696 35.3012ZM20.5268 36.7807L22.3345 38.8193L17.9341 42.7773L16.0981 40.706L20.5268 36.7807ZM20.9263 46.1523L19.1782 44.1801L23.5781 40.2226L25.355 42.2265L20.9263 46.1523Z" fill="#23C4B3"/>
<path id="Vector_4" d="M42.2735 16.6924L35.6734 22.542C35.293 22.8794 35.0669 23.3447 35.0362 23.852C35.0059 24.3594 35.1744 24.8481 35.5118 25.2285L40.3028 30.6328C40.6397 31.0132 41.105 31.2392 41.6124 31.27C41.6514 31.2724 41.6905 31.2734 41.7291 31.2734C42.1944 31.2734 42.6382 31.1054 42.9888 30.7944L49.5889 24.9443C49.9693 24.6074 50.1954 24.1421 50.2261 23.6347C50.2569 23.1269 50.0879 22.6382 49.7505 22.2578L44.96 16.854C44.2637 16.0688 43.0586 15.9966 42.2735 16.6924ZM48.3545 23.522C48.354 23.5337 48.3487 23.5386 48.3453 23.541V23.5415L41.7452 29.3911C41.7417 29.394 41.7378 29.3999 41.7251 29.3984C41.7134 29.3979 41.7085 29.3921 41.7056 29.3891L36.9151 23.9848C36.9122 23.9819 36.9073 23.9761 36.9078 23.9648C36.9087 23.9531 36.9141 23.9482 36.917 23.9453L43.5171 18.0957C43.5225 18.0908 43.5293 18.0884 43.5357 18.0884C43.544 18.0884 43.5513 18.0913 43.5567 18.0976L48.3477 23.5019C48.3506 23.5049 48.3555 23.5107 48.3545 23.522Z" fill="#23C4B3"/>
</g>
</svg>
