<svg width="64" height="56" viewBox="0 0 64 56" fill="none" xmlns="http://www.w3.org/2000/svg">
<g id="mobile">
<path id="Vector" d="M23.4145 0.625H3.91405C1.75585 0.625 0 2.38134 0 4.53954V51.5584C0 53.7166 1.75585 55.4724 3.91405 55.4724H23.4145C25.5727 55.4724 27.3285 53.7166 27.3285 51.5584V15.6069C27.3285 15.0893 26.9086 14.6694 26.391 14.6694C25.8729 14.6694 25.4535 15.0893 25.4535 15.6069V51.5584C25.4535 52.6829 24.539 53.5974 23.4145 53.5974H3.91405C2.78954 53.5974 1.87499 52.6829 1.87499 51.5584V4.53954C1.87499 3.41503 2.78954 2.50048 3.91405 2.50048H10.5903L11.0532 4.58495C11.3012 5.70164 12.2734 6.48142 13.4174 6.48142H13.9111C15.0546 6.48142 16.0268 5.70164 16.2748 4.58495L16.7382 2.50048H23.4145C24.539 2.50048 25.4535 3.41503 25.4535 4.53954V10.999C25.4535 11.5166 25.8729 11.9365 26.391 11.9365C26.9086 11.9365 27.3285 11.5166 27.3285 10.999V4.53954C27.3285 2.38134 25.5727 0.625 23.4145 0.625V0.625ZM14.4448 4.17821C14.3886 4.43016 14.1694 4.60643 13.9111 4.60643H13.4174C13.1591 4.60643 12.9399 4.43016 12.8837 4.17821L12.5107 2.49999H14.8173L14.4448 4.17821Z" fill="#C3CEE2"/>
<path id="Vector_2" d="M4.4248 48.0105C4.4248 49.7771 5.8623 51.2151 7.62891 51.2151C9.39551 51.2151 10.833 49.7771 10.833 48.0105C10.833 46.2434 9.39551 44.8054 7.62891 44.8054C5.8623 44.8054 4.4248 46.2434 4.4248 48.0105ZM8.95801 48.0105C8.95801 48.7434 8.36182 49.3401 7.62891 49.3401C6.896 49.3401 6.2998 48.7434 6.2998 48.0105C6.2998 47.2771 6.896 46.6804 7.62891 46.6804C8.36182 46.6804 8.95801 47.2771 8.95801 48.0105Z" fill="#C3CEE2"/>
<path id="Vector_3" d="M20.0316 51.2151C21.7987 51.2151 23.2357 49.7771 23.2357 48.0105C23.2357 46.2434 21.7987 44.8054 20.0316 44.8054C18.265 44.8054 16.8275 46.2434 16.8275 48.0105C16.8275 49.7771 18.265 51.2151 20.0316 51.2151ZM20.0316 46.6809C20.7645 46.6809 21.3607 47.2771 21.3607 48.0105C21.3607 48.7434 20.7645 49.3401 20.0316 49.3401C19.2987 49.3401 18.7025 48.7434 18.7025 48.0105C18.7025 47.2771 19.2987 46.6809 20.0316 46.6809Z" fill="#C3CEE2"/>
<path id="Vector_4" d="M19.9893 32.3802C20.0425 32.3383 20.0913 32.2909 20.1343 32.2386C21.7627 30.5922 22.7705 28.3304 22.7705 25.8373C22.7705 20.8148 18.6855 16.7294 13.6641 16.7294C8.64258 16.7294 4.55762 20.8153 4.55762 25.8373C4.55762 28.3485 5.5791 30.6254 7.22803 32.2748C7.26709 32.3192 7.30957 32.3602 7.35645 32.3969C8.99414 33.973 11.2168 34.9452 13.6641 34.9452C16.1196 34.9452 18.3496 33.9662 19.9893 32.3802ZM7.76953 30.0189C6.9292 28.8373 6.43262 27.3944 6.43262 25.8373C6.43262 21.849 9.67676 18.6044 13.6641 18.6044C17.6519 18.6044 20.8955 21.849 20.8955 25.8373C20.8955 27.389 20.4028 28.827 19.5679 30.0062C19.4834 29.911 19.395 29.8177 19.2993 29.7294C18.606 29.0931 17.6797 28.7426 16.6904 28.7426H10.6577C9.66797 28.7426 8.7417 29.0931 8.05078 29.7284C7.9502 29.8207 7.85742 29.9188 7.76953 30.0189ZM9.31885 31.1102C9.66406 30.7924 10.1396 30.6176 10.6577 30.6176H16.6904C17.2085 30.6176 17.6846 30.7928 18.0303 31.1097C18.1284 31.2001 18.2124 31.2968 18.2827 31.3978C17.0293 32.4413 15.4189 33.0702 13.6641 33.0702C11.9155 33.0702 10.3101 32.4457 9.05811 31.4086C9.12988 31.3036 9.2168 31.2035 9.31885 31.1102Z" fill="#23C4B3"/>
<path id="Vector_5" d="M11.7139 26.8881L12.6333 27.4486C12.9546 27.6444 13.3145 27.7426 13.6743 27.7426C14.0342 27.7426 14.394 27.6444 14.7153 27.4486L15.6353 26.8881C16.2271 26.5267 16.5952 25.8715 16.5952 25.1776V22.7137C16.5952 21.5199 15.625 20.5492 14.4326 20.5492H12.9165C11.7241 20.5492 10.7539 21.5204 10.7539 22.7137V25.1776C10.7539 25.8715 11.1216 26.5267 11.7139 26.8881ZM12.6289 22.7137C12.6289 22.5541 12.7578 22.4242 12.916 22.4242H14.4326C14.5908 22.4242 14.7197 22.5541 14.7197 22.7137V25.1776C14.7197 25.222 14.6963 25.264 14.6592 25.287L13.7393 25.848C13.6992 25.8724 13.6494 25.8724 13.6099 25.848L12.6899 25.287C12.6523 25.264 12.6289 25.222 12.6289 25.1776V22.7137Z" fill="#23C4B3"/>
<path id="Vector_6" d="M60.0857 0.625H40.5858C38.4276 0.625 36.6718 2.38085 36.6718 4.53905V51.5584C36.6718 53.7166 38.4276 55.4724 40.5858 55.4724H60.0857C62.2439 55.4724 64.0003 53.7166 64.0003 51.5584V4.53905C63.9998 2.38085 62.2439 0.625 60.0857 0.625ZM51.4891 2.49999L51.116 4.17821C51.0604 4.43016 50.8406 4.60643 50.5823 4.60643H50.0887C49.8304 4.60643 49.6112 4.43016 49.555 4.17821L49.1824 2.49999H51.4891ZM62.1248 51.5584C62.1248 52.6829 61.2102 53.5974 60.0857 53.5974H40.5858C39.4613 53.5974 38.5463 52.6829 38.5463 51.5584V4.53905C38.5463 3.41503 39.4613 2.49999 40.5858 2.49999H47.2616L47.7249 4.58495C47.973 5.70164 48.9451 6.48142 50.0887 6.48142H50.5823C51.7264 6.48142 52.6985 5.70164 52.9466 4.58495L53.4095 2.49999H60.0857C61.2102 2.49999 62.1248 3.41454 62.1248 4.53905V51.5584Z" fill="#C3CEE2"/>
<path id="Vector_7" d="M44.3 44.8059C42.5334 44.8059 41.0959 46.2434 41.0959 48.0105C41.0959 49.7776 42.5334 51.2151 44.3 51.2151C46.0671 51.2151 47.5042 49.7776 47.5042 48.0105C47.5042 46.2434 46.0671 44.8059 44.3 44.8059ZM44.3 49.3401C43.5671 49.3401 42.9709 48.7434 42.9709 48.0105C42.9709 47.2771 43.5671 46.6804 44.3 46.6804C45.033 46.6804 45.6292 47.2771 45.6292 48.0105C45.6292 48.7434 45.0334 49.3401 44.3 49.3401Z" fill="#C3CEE2"/>
<path id="Vector_8" d="M56.7034 44.8059C54.9363 44.8059 53.4993 46.2434 53.4993 48.0105C53.4993 49.7776 54.9363 51.2151 56.7034 51.2151C58.47 51.2151 59.9075 49.7776 59.9075 48.0105C59.9075 46.2434 58.47 44.8059 56.7034 44.8059ZM56.7034 49.3401C55.9705 49.3401 55.3743 48.7434 55.3743 48.0105C55.3743 47.2771 55.9705 46.6804 56.7034 46.6804C57.4363 46.6804 58.0325 47.2771 58.0325 48.0105C58.0325 48.7434 57.4363 49.3401 56.7034 49.3401Z" fill="#C3CEE2"/>
<path id="Vector_9" d="M56.9734 31.9305C56.9744 31.9276 56.9753 31.9252 56.9763 31.9222C56.9836 31.8978 56.9895 31.8734 56.9954 31.849C56.9963 31.8431 56.9983 31.8378 56.9993 31.8319C57.0051 31.8036 57.0095 31.7743 57.0125 31.7455C57.0134 31.7382 57.0134 31.7313 57.0144 31.7245C57.0164 31.6991 57.0178 31.6737 57.0183 31.6483C57.0183 31.6469 57.0183 31.6454 57.0183 31.6439C57.0183 31.6356 57.0173 31.6273 57.0168 31.619C57.0164 31.5956 57.0149 31.5721 57.0129 31.5492C57.0115 31.5345 57.009 31.5199 57.0066 31.5057C57.0042 31.4872 57.0007 31.4686 56.9968 31.4501C56.9954 31.4427 56.9949 31.4349 56.9929 31.4276C56.9905 31.4159 56.9866 31.4047 56.9836 31.3934C56.9822 31.3881 56.9807 31.3822 56.9788 31.3768C56.8215 30.7621 56.4749 30.1932 55.9705 29.7294C55.2776 29.0927 54.3508 28.7426 53.3621 28.7426H47.3293C46.3396 28.7426 45.4133 29.0931 44.7224 29.7284C44.6218 29.8207 44.5291 29.9183 44.4412 30.0189C43.6003 28.8373 43.1042 27.3944 43.1042 25.8368C43.1042 21.8485 46.3484 18.6044 50.3357 18.6044C54.3235 18.6044 57.5671 21.8485 57.5671 25.8368C57.5671 26.4276 57.4958 27.015 57.3552 27.5829C57.2307 28.0853 57.5374 28.5941 58.0403 28.7181C58.5422 28.8417 59.051 28.536 59.1755 28.0336C59.3523 27.3182 59.4421 26.5795 59.4421 25.8368C59.4421 20.8148 55.3572 16.7294 50.3357 16.7294C45.3142 16.7294 41.2292 20.8148 41.2292 25.8368C41.2292 28.348 42.2507 30.6254 43.8997 32.2743C43.9382 32.3192 43.9812 32.3602 44.0281 32.3973C45.6663 33.973 47.8889 34.9452 50.3357 34.9452C52.7498 34.9452 55.0242 34.0101 56.74 32.3119C56.8513 32.2015 56.929 32.0702 56.9734 31.9305ZM50.3357 33.0702C48.5867 33.0702 46.9812 32.4457 45.7297 31.4086C45.8015 31.3036 45.8879 31.2035 45.99 31.1102C46.3357 30.7928 46.8108 30.6176 47.3293 30.6176H53.3621C53.8801 30.6176 54.3562 30.7928 54.7019 31.1102C54.8005 31.201 54.885 31.2982 54.9558 31.3998C53.6599 32.4803 52.0422 33.0702 50.3357 33.0702Z" fill="#23C4B3"/>
<path id="Vector_10" d="M49.5876 20.5492C48.3953 20.5492 47.425 21.5204 47.425 22.7137V25.1776C47.425 25.8715 47.7927 26.5267 48.385 26.8881L49.3049 27.4486C49.6262 27.6444 49.9861 27.7426 50.3459 27.7426C50.7058 27.7426 51.0657 27.6444 51.3865 27.4486L52.3064 26.8881C52.8987 26.5267 53.2664 25.8715 53.2664 25.1776V22.7137C53.2664 21.5199 52.2961 20.5492 51.1042 20.5492H49.5876ZM51.3914 22.7137V25.1776C51.3914 25.222 51.3679 25.264 51.3303 25.287L50.4104 25.848C50.3704 25.8719 50.321 25.8719 50.281 25.848L49.3611 25.287C49.3235 25.264 49.3 25.222 49.3 25.1776V22.7137C49.3 22.5541 49.429 22.4242 49.5876 22.4242H51.1038C51.2625 22.4242 51.3914 22.5541 51.3914 22.7137Z" fill="#23C4B3"/>
</g>
</svg>
