<svg width="64" height="64" viewBox="0 0 64 64" fill="none" xmlns="http://www.w3.org/2000/svg">
<g id="solutions">
<path id="Vector" d="M48.9082 34.4736C48.9082 34.9912 49.3276 35.4111 49.8457 35.4111C50.3633 35.4111 50.7832 34.9912 50.7832 34.4736C50.7832 32.5781 49.2412 31.0361 47.3457 31.0361H32.937V29.3486C32.937 28.8311 32.5176 28.4111 31.9995 28.4111C31.4819 28.4111 31.062 28.8311 31.062 29.3486V31.0361H16.6543C14.7588 31.0361 13.2168 32.5781 13.2168 34.4736C13.2168 34.9912 13.6362 35.4111 14.1543 35.4111C14.6719 35.4111 15.0918 34.9912 15.0918 34.4736C15.0918 33.6118 15.7925 32.9111 16.6543 32.9111H47.3457C48.207 32.9111 48.9082 33.6123 48.9082 34.4736Z" fill="#23C4B3"/>
<path id="Vector_2" d="M61.1694 37.854H38.1484C36.5879 37.854 35.3179 39.124 35.3179 40.6846V56.5181C35.3179 58.0791 36.5879 59.3486 38.1484 59.3486H44.3833L43.9126 62.125H43.6914C43.1738 62.125 42.7539 62.5449 42.7539 63.0625C42.7539 63.5801 43.1738 64 43.6914 64H55.627C56.1445 64 56.5645 63.5801 56.5645 63.0625C56.5645 62.5449 56.1445 62.125 55.627 62.125H55.4053L54.9351 59.3491H61.1694C62.7305 59.3491 64 58.0791 64 56.5186V40.6846C64 39.124 62.7305 37.854 61.1694 37.854ZM38.1484 39.729H61.1694C61.6963 39.729 62.125 40.1577 62.125 40.6846V52.9087H57.082V52.7822C57.082 52.7095 57.0737 52.6367 57.0566 52.5654C56.8916 51.8726 56.5049 51.2305 55.937 50.708C55.1758 50.0098 54.1582 49.625 53.0708 49.625H46.251C45.1631 49.625 44.145 50.0098 43.3867 50.7075C42.812 51.2334 42.4224 51.8843 42.2598 52.5908C42.2437 52.6597 42.2358 52.7305 42.2358 52.8013V52.9092H37.1929V40.6846C37.1929 40.1577 37.6216 39.729 38.1484 39.729ZM44.1147 52.9092C44.2056 52.6123 44.3901 52.3311 44.6538 52.0889C45.0669 51.709 45.6343 51.5 46.251 51.5H53.0708C53.687 51.5 54.2549 51.7095 54.6685 52.0889C54.9316 52.3311 55.1162 52.6118 55.207 52.9062V52.9092H44.1147ZM53.5034 62.125H45.8145L46.2847 59.3491H53.0332L53.5034 62.125ZM62.125 56.5186C62.125 57.0454 61.6963 57.4736 61.1694 57.4736H38.1484C37.6216 57.4736 37.1929 57.0454 37.1929 56.5186V54.7842H62.125V56.5186Z" fill="#C3CEE2"/>
<path id="Vector_3" d="M47.5083 47.9775L48.5483 48.6113C48.8916 48.8208 49.2764 48.9253 49.6611 48.9253C50.0459 48.9253 50.4307 48.8208 50.7739 48.6113L51.814 47.9775C52.4473 47.5913 52.8403 46.8906 52.8403 46.1489V44.0732C52.8403 42.7915 51.7988 41.7485 50.5181 41.7485H48.8037C47.5234 41.7485 46.4814 42.7915 46.4814 44.0732V46.1489C46.4819 46.8906 46.875 47.5913 47.5083 47.9775ZM48.3569 44.0728C48.3569 43.8252 48.5576 43.6235 48.8042 43.6235H50.5181C50.7646 43.6235 50.9658 43.8252 50.9658 44.0728V46.1484C50.9658 46.2412 50.917 46.3281 50.8379 46.3765L49.7983 47.0103C49.7139 47.062 49.6084 47.062 49.5244 47.0103L48.4844 46.3765C48.4058 46.3286 48.3569 46.2412 48.3569 46.1484V44.0728Z" fill="#C3CEE2"/>
<path id="Vector_4" d="M20.4893 21.4946H26.7241L26.2539 24.271H26.0322C25.5146 24.271 25.0947 24.6904 25.0947 25.2085C25.0947 25.7261 25.5146 26.146 26.0322 26.146H37.9678C38.4854 26.146 38.9053 25.7261 38.9053 25.2085C38.9053 24.6904 38.4854 24.271 37.9678 24.271H37.7466L37.2759 21.4946H43.5107C45.0713 21.4946 46.3413 20.2251 46.3413 18.6641V9.875C46.3413 9.35742 45.9214 8.9375 45.4038 8.9375C44.8857 8.9375 44.4663 9.35742 44.4663 9.875V15.0547H39.4233V14.9282C39.4233 14.8555 39.4146 14.7827 39.3979 14.7114C39.2329 14.0186 38.8462 13.3765 38.2783 12.854C37.5171 12.1558 36.499 11.771 35.4121 11.771H28.5918C27.5039 11.771 26.4863 12.1558 25.7275 12.853C25.1533 13.3789 24.7637 14.0303 24.6006 14.7368C24.585 14.8057 24.5767 14.8765 24.5767 14.9473V15.0547H19.5342V2.83057C19.5342 2.30371 19.9624 1.875 20.4893 1.875H43.5107C44.0376 1.875 44.4658 2.30371 44.4658 2.83057V5.875C44.4658 6.39258 44.8857 6.8125 45.4033 6.8125C45.9214 6.8125 46.3408 6.39258 46.3408 5.875V2.83057C46.3408 1.27002 45.0713 0 43.5107 0H20.4893C18.9287 0 17.6592 1.27002 17.6592 2.83057V18.6641C17.6592 20.2251 18.9287 21.4946 20.4893 21.4946ZM35.8447 24.271H28.1553L28.626 21.4946H35.374L35.8447 24.271ZM26.9951 14.2349C27.4082 13.855 27.9751 13.646 28.5918 13.646H35.4116C36.0283 13.646 36.5962 13.8555 37.0093 14.2344C37.2725 14.4771 37.4575 14.7578 37.5479 15.0522V15.0547H26.4561C26.5469 14.7578 26.731 14.4766 26.9951 14.2349ZM44.4658 16.9297V18.6641C44.4658 19.1909 44.0376 19.6196 43.5107 19.6196H20.4897C19.9629 19.6196 19.5342 19.1909 19.5342 18.6641V16.9297H44.4658Z" fill="#C3CEE2"/>
<path id="Vector_5" d="M31.145 3.89453C29.8647 3.89453 28.8228 4.93701 28.8228 6.21875V8.29443C28.8228 9.03662 29.2158 9.7373 29.8491 10.123L30.8892 10.7568C31.2324 10.9663 31.6172 11.0708 32.002 11.0708C32.3872 11.0708 32.772 10.9663 33.1152 10.7568L34.1548 10.123C34.7881 9.7373 35.1816 9.03662 35.1816 8.29443V6.21875C35.1816 4.93701 34.1396 3.89453 32.8589 3.89453H31.145ZM33.3066 6.21875V8.29443C33.3066 8.38672 33.2578 8.47412 33.1792 8.52197L32.1392 9.15625C32.0547 9.20752 31.9497 9.20752 31.8652 9.15625L30.8252 8.52197C30.7466 8.47412 30.6978 8.38672 30.6978 8.29443V6.21875C30.6978 5.97119 30.8984 5.76953 31.145 5.76953H32.8594C33.106 5.76953 33.3066 5.97119 33.3066 6.21875Z" fill="#C3CEE2"/>
<path id="Vector_6" d="M25.8516 37.854H2.83057C1.26953 37.854 0 39.124 0 40.6846V56.5186C0 58.0791 1.26953 59.3486 2.83057 59.3486H9.06543L8.59473 62.125H8.37354C7.85547 62.125 7.43604 62.5449 7.43604 63.0625C7.43604 63.5801 7.85547 64 8.37354 64H20.3086C20.8267 64 21.2461 63.5801 21.2461 63.0625C21.2461 62.5449 20.8267 62.125 20.3086 62.125H20.0874L19.6172 59.3491H25.8516C27.4126 59.3491 28.6821 58.0791 28.6821 56.5186V40.6846C28.6821 39.124 27.4121 37.854 25.8516 37.854ZM2.83057 39.729H25.8516C26.3784 39.729 26.8071 40.1577 26.8071 40.6846V52.9087H21.7642V52.7822C21.7642 52.7095 21.7559 52.6362 21.7388 52.5654C21.5737 51.8721 21.187 51.23 20.6191 50.708C19.8579 50.0098 18.8398 49.625 17.7529 49.625H10.9331C9.84521 49.625 8.82715 50.0098 8.06836 50.707C7.49414 51.2329 7.10449 51.8843 6.94189 52.5908C6.92578 52.6597 6.91797 52.7305 6.91797 52.8013V52.9092H1.875V40.6846C1.875 40.1577 2.30371 39.729 2.83057 39.729ZM18.1855 62.125H10.4966L10.9668 59.3491H17.7153L18.1855 62.125ZM26.8071 56.5186C26.8071 57.0454 26.3784 57.4736 25.8516 57.4736H2.83057C2.30371 57.4736 1.875 57.0454 1.875 56.5186V54.7842H9.75C10.2676 54.7842 10.6875 54.3643 10.6875 53.8467C10.6875 53.3286 10.2676 52.9092 9.75 52.9092H8.79688C8.8877 52.6123 9.07178 52.3311 9.33594 52.0889C9.74902 51.709 10.3164 51.5 10.9331 51.5H17.7529C18.3691 51.5 18.937 51.7095 19.3506 52.0889C19.6138 52.3311 19.7983 52.6118 19.8892 52.9062V52.9092H13.6719C13.1543 52.9092 12.7344 53.3286 12.7344 53.8467C12.7344 54.3643 13.1543 54.7842 13.6719 54.7842H26.8071V56.5186Z" fill="#C3CEE2"/>
<path id="Vector_7" d="M12.1904 47.9775L13.2305 48.6113C13.5737 48.8208 13.958 48.9253 14.3433 48.9253C14.728 48.9253 15.1128 48.8208 15.4561 48.6113L16.4961 47.9775C17.1289 47.5913 17.5225 46.8906 17.5225 46.1489V44.0732C17.5225 42.7915 16.4805 41.7485 15.2002 41.7485H13.4858C12.2056 41.7485 11.1636 42.7915 11.1636 44.0732V46.1489C11.1641 46.8906 11.5571 47.5913 12.1904 47.9775ZM13.0391 44.0728C13.0391 43.8252 13.2393 43.6235 13.4863 43.6235H15.2002C15.4468 43.6235 15.6479 43.8252 15.6479 44.0728V46.1484C15.6479 46.2412 15.5986 46.3281 15.52 46.3765L14.4805 47.0103C14.3955 47.062 14.2905 47.062 14.2065 47.0103L13.1665 46.3765C13.0879 46.3286 13.0391 46.2412 13.0391 46.1484V44.0728Z" fill="#C3CEE2"/>
</g>
</svg>
