<svg width="60" height="64" viewBox="0 0 60 64" fill="none" xmlns="http://www.w3.org/2000/svg">
<g id="pea">
<path id="Vector" d="M58.1996 12.3125C58.7177 12.3125 59.1371 11.8926 59.1371 11.375V8.15086C59.1371 6.94432 58.1532 5.96239 56.9437 5.96239H50.4364C49.7504 5.96239 49.1825 6.4995 49.1439 7.18553C48.995 9.84275 46.7812 11.9248 44.1039 11.9248C41.4267 11.9248 39.2128 9.84275 39.0634 7.18553C39.0248 6.4995 38.4574 5.96239 37.7714 5.96239H22.7685C22.3061 2.58154 19.3833 0 15.9082 0C12.4336 0 9.51073 2.58203 9.04881 5.96239H3.06836C1.85888 5.96239 0.875 6.94432 0.875 8.15086V61.8114C0.875 63.0179 1.85888 63.9999 3.06836 63.9999H9.57615C10.2622 63.9999 10.8296 63.4628 10.8681 62.7767C11.0171 60.1195 13.2314 58.0375 15.9082 58.0375C18.5854 58.0375 20.7998 60.1195 20.9487 62.7767C20.9873 63.4628 21.5546 63.9999 22.2407 63.9999H56.9437C58.1532 63.9999 59.1371 63.0184 59.1371 61.8114V15.25C59.1371 14.7324 58.7177 14.3125 58.1996 14.3125C57.682 14.3125 57.2621 14.7324 57.2621 15.25V33.7304C57.2621 33.9028 57.1195 34.0434 56.9447 34.0434C56.9442 34.0434 56.9442 34.0434 56.9437 34.0434H50.9638C50.5014 30.663 47.5785 28.081 44.1039 28.081C40.6288 28.081 37.706 30.663 37.2441 34.0434H30.9457V27.2993C30.9457 27.2509 30.9423 27.2031 30.9374 27.1557C30.8915 26.5126 30.373 25.9936 29.7172 25.9575C29.6826 25.9555 29.6489 25.9516 29.6142 25.9492C29.5556 25.9448 29.4965 25.9399 29.4384 25.9335C29.4247 25.9321 29.4116 25.9301 29.3979 25.9282C26.8876 25.6274 24.9594 23.4887 24.9594 20.9404C24.9594 19.559 25.5268 18.2988 26.4453 17.3857C26.4897 17.8183 26.832 18.1757 27.2822 18.2221L27.3081 18.2246C27.3364 18.227 27.3637 18.228 27.3916 18.228C27.872 18.228 28.2817 17.8608 28.3247 17.373C28.3608 16.9638 28.1284 16.5942 27.7734 16.4355C28.2724 16.1889 28.8178 16.0224 29.3945 15.9526C29.4096 15.9511 29.4243 15.9487 29.4389 15.9472C29.4955 15.9409 29.5522 15.9365 29.6093 15.9321C29.6455 15.9292 29.6806 15.9253 29.7167 15.9233C30.3725 15.8872 30.8915 15.3681 30.9374 14.7246C30.9423 14.6777 30.9453 14.6299 30.9453 14.5815V8.15086C30.9453 7.97801 31.0883 7.83739 31.2641 7.83739H37.2436C37.7045 11.2221 40.6181 13.7998 44.1039 13.7998C47.5893 13.7998 50.5028 11.2221 50.9638 7.83739H56.9437C57.119 7.83739 57.2621 7.97801 57.2621 8.15086V11.375C57.2621 11.8926 57.682 12.3125 58.1996 12.3125ZM30.9457 35.9184H37.7201C38.4291 35.9184 39.0204 35.3627 39.0663 34.6528C39.2363 32.019 41.4491 29.956 44.1039 29.956C45.1103 29.956 46.0522 30.2529 46.8446 30.7646C46.9501 30.9814 47.1396 31.1577 47.3861 31.2411C47.4247 31.2543 47.4633 31.2626 47.5019 31.2704C48.4374 32.1186 49.0551 33.311 49.1415 34.6528C49.1874 35.3627 49.7787 35.9184 50.4877 35.9184H56.9413C56.9423 35.9184 56.9432 35.9189 56.9437 35.9189H56.9447C57.12 35.9189 57.2621 36.0595 57.2621 36.2323V61.8114C57.2621 61.9843 57.1195 62.1249 56.9437 62.1249H31.2641C31.0883 62.1249 30.9457 61.9843 30.9457 61.8114V55.8588C32.8901 55.5971 34.5683 54.5331 35.6489 53.0199C35.7333 53.1845 35.8661 53.3261 36.0414 53.4198L36.058 53.4286C36.1972 53.5014 36.3461 53.536 36.4931 53.536C36.8305 53.536 37.1562 53.3534 37.3241 53.0341C37.5644 52.5756 37.3876 52.0087 36.9291 51.768L36.4828 52.5927L36.9238 51.7655C36.7587 51.6771 36.579 51.6444 36.4052 51.6591C36.7436 50.8451 36.9311 49.9545 36.9311 49.0219C36.9311 45.5468 34.3432 42.643 30.9453 42.185V35.9184H30.9457ZM29.0668 14.1035C27.2309 14.3506 25.6333 15.3125 24.5507 16.6919C24.4511 16.3232 24.1313 16.0381 23.7285 16.0024C23.7241 16.0019 23.707 16.0005 23.7026 16C23.1884 15.9629 22.7436 16.3471 22.7026 16.8613C22.6616 17.3755 23.0473 17.8261 23.561 17.8696L23.6464 16.936L23.5639 17.8701C23.5922 17.8725 23.6196 17.8735 23.6474 17.8735C23.7026 17.8735 23.7568 17.8681 23.81 17.8589C23.3437 18.788 23.081 19.8354 23.081 20.9404C23.081 24.4155 25.6689 27.3198 29.0668 27.7778V33.7304V34.0439H24.4545C23.937 34.0439 23.517 34.4633 23.517 34.9814C23.517 35.499 23.937 35.9189 24.4545 35.9189H29.0668V36.2323V42.663C29.0668 42.7113 29.0698 42.7592 29.0751 42.8061C29.1206 43.4496 29.6396 43.9687 30.2954 44.0048C30.332 44.0067 30.3686 44.0107 30.4052 44.0136C30.4614 44.018 30.517 44.0224 30.5727 44.0282C30.5888 44.0302 30.6049 44.0326 30.6215 44.0346C30.6889 44.0429 30.7563 44.0517 30.8232 44.0624C30.8242 44.0629 30.8251 44.0629 30.8261 44.0629C33.2324 44.4555 35.0527 46.5453 35.0527 49.0219C35.0527 51.4975 33.2328 53.5873 30.8266 53.9804C30.8251 53.9804 30.8242 53.9804 30.8232 53.9809C30.7563 53.9916 30.6894 54.0004 30.622 54.0087C30.6054 54.0106 30.5888 54.0131 30.5722 54.015C30.517 54.0209 30.4614 54.0253 30.4057 54.0297C30.3691 54.0326 30.3325 54.0365 30.2954 54.0385C29.6396 54.0751 29.121 54.5936 29.0751 55.2372C29.0698 55.2841 29.0668 55.3319 29.0668 55.3803V61.8109C29.0668 61.9843 28.9243 62.1249 28.7485 62.1249H22.7685C22.3076 58.7401 19.3945 56.1625 15.9087 56.1625C12.4228 56.1625 9.50926 58.7401 9.04832 62.1249H3.06836C2.89306 62.1249 2.75 61.9843 2.75 61.8114V36.2319C2.75 36.0595 2.89257 35.9189 3.06787 35.9184H3.06836H14.2094C14.268 35.9941 14.3388 36.0624 14.4218 36.1196C14.5835 36.2299 14.7671 36.2826 14.9492 36.2826C15.2314 36.2826 15.5078 36.1547 15.6914 35.9184H20.3227C20.8408 35.9184 21.2602 35.499 21.2602 34.9809C21.2602 34.4633 20.8408 34.0434 20.3227 34.0434H3.0708C3.07031 34.0434 3.06933 34.0434 3.06836 34.0434H3.06787C2.89257 34.0429 2.75 33.9028 2.75 33.7299V8.15086C2.75 7.97801 2.89306 7.83739 3.06836 7.83739H9.52489C10.2334 7.83739 10.8247 7.28124 10.8706 6.57176C11.041 3.93798 13.2539 1.875 15.9082 1.875C18.563 1.875 20.7758 3.93798 20.9462 6.57176C20.9921 7.28124 21.5835 7.83739 22.292 7.83739H28.7485C28.9238 7.83739 29.0668 7.97801 29.0668 8.15086V14.1035Z" fill="#C3CEE2"/>
<path id="Vector_2" d="M9.64319 43.8763L9.63929 43.8558C9.54212 43.347 9.05091 43.0145 8.54261 43.1126C8.0343 43.2098 7.7013 43.7035 7.79846 44.2118C7.8805 44.6644 8.27503 44.9818 8.71936 44.9818C8.77503 44.9818 8.83167 44.9769 8.88831 44.9662C9.39759 44.8734 9.73548 44.3856 9.64319 43.8763Z" fill="#23C4B3"/>
<path id="Vector_3" d="M19.7974 15.9237C19.2818 15.9686 18.9 16.4232 18.9449 16.9388C18.9874 17.4271 19.3965 17.7953 19.8775 17.7953C19.9048 17.7953 19.9322 17.7943 19.96 17.7918L19.9737 17.7904C20.4893 17.745 20.8648 17.2904 20.8194 16.7747C20.774 16.2591 20.3135 15.8778 19.7974 15.9237Z" fill="#23C4B3"/>
<path id="Vector_4" d="M8.94429 41.2422C9.10786 41.3569 9.29488 41.4121 9.48091 41.4121C9.77583 41.4121 10.0664 41.2734 10.2495 41.0147L9.48872 40.4668L10.2519 41.0117C10.5527 40.5903 10.455 40.0049 10.0336 39.7041C9.61275 39.4033 9.02681 39.501 8.72603 39.9219L8.71236 39.9414C8.41744 40.3652 8.52193 40.9453 8.94429 41.2422Z" fill="#23C4B3"/>
<path id="Vector_5" d="M12.8043 38.6474C13.213 38.3295 13.2867 37.7401 12.9684 37.3315C12.6505 36.9228 12.0616 36.8495 11.6529 37.1674L11.6432 37.1752C11.2345 37.4931 11.1607 38.0819 11.4786 38.4906C11.6637 38.7279 11.94 38.8524 12.2193 38.8524C12.4205 38.8524 12.6231 38.788 12.794 38.6552L12.8043 38.6474Z" fill="#23C4B3"/>
<path id="Vector_6" d="M11.1037 46.7664C10.7751 46.3685 10.1896 46.3162 9.79068 46.6444C9.39126 46.972 9.33658 47.5652 9.66275 47.9656C9.84781 48.1932 10.1178 48.3113 10.3898 48.3113C10.5983 48.3113 10.8078 48.242 10.9816 48.1004C11.383 47.7733 11.443 47.1829 11.1164 46.7816C11.1144 46.7796 11.1051 46.7684 11.1037 46.7664Z" fill="#23C4B3"/>
<path id="Vector_7" d="M13.7208 48.9104L13.274 49.7351L13.7155 48.9079C13.2584 48.6643 12.6905 48.8367 12.4469 49.2937C12.2032 49.7507 12.3761 50.3186 12.8331 50.5618L12.8497 50.571C12.9889 50.6438 13.1373 50.6785 13.2843 50.6785C13.6217 50.6785 13.9479 50.4958 14.1154 50.176C14.3561 49.7175 14.1793 49.1511 13.7208 48.9104Z" fill="#23C4B3"/>
<path id="Vector_8" d="M16.8156 49.6499L16.8034 49.6509C16.2872 49.6963 15.9122 50.1509 15.9581 50.667C16.0011 51.1543 16.4157 51.5215 16.8966 51.5215C16.9245 51.5215 16.9523 51.52 16.9806 51.5175C17.4962 51.4721 17.8776 51.0171 17.8322 50.5014C17.7863 49.9853 17.3307 49.603 16.8156 49.6499Z" fill="#23C4B3"/>
<path id="Vector_9" d="M22.6508 47.5531C22.8076 47.8997 23.1489 48.1048 23.5058 48.1048C23.6352 48.1048 23.7661 48.078 23.8916 48.0213L23.9253 48.0057C24.3916 47.7801 24.5864 47.2196 24.3608 46.7533C24.1367 46.2909 23.5825 46.0951 23.1181 46.3133C22.6469 46.5272 22.438 47.0814 22.6508 47.5531Z" fill="#23C4B3"/>
<path id="Vector_10" d="M19.8023 48.3739L20.3179 49.1571L19.7979 48.3768C19.3672 48.6639 19.2505 49.246 19.5381 49.6766C19.7188 49.9481 20.0157 50.0946 20.3189 50.0946C20.4976 50.0946 20.6783 50.0433 20.8379 49.9369C20.8399 49.9354 20.8526 49.9271 20.8545 49.9256C21.2828 49.6351 21.3936 49.0536 21.1041 48.6253C20.814 48.1966 20.231 48.0848 19.8023 48.3739Z" fill="#23C4B3"/>
<path id="Vector_11" d="M29.9096 48.7749L29.9262 48.7886C30.1005 48.9336 30.3125 49.0044 30.5224 49.0044C30.791 49.0044 31.0576 48.8892 31.2436 48.6665C31.5747 48.2695 31.5205 47.6782 31.124 47.3462L30.5151 48.0591L31.1206 47.3433C30.7255 47.0088 30.1337 47.0586 29.7998 47.4536C29.4648 47.8486 29.5141 48.4404 29.9096 48.7749Z" fill="#23C4B3"/>
<path id="Vector_12" d="M10.9452 25.8951L11.725 25.375C11.4379 24.9444 10.8559 24.8277 10.4252 25.1153C9.99456 25.4024 9.87786 25.9844 10.1655 26.4151C10.1664 26.417 10.1752 26.4297 10.1767 26.4317C10.3578 26.6988 10.6518 26.8423 10.9516 26.8423C11.1327 26.8423 11.3158 26.7901 11.477 26.6807C11.9052 26.3912 12.0175 25.8082 11.7284 25.379L10.9452 25.8951Z" fill="#23C4B3"/>
<path id="Vector_13" d="M10.4649 23.2817C10.8331 23.2817 11.1827 23.0634 11.3316 22.7016C11.3336 22.6977 11.3394 22.6821 11.3414 22.6782C11.5323 22.1968 11.297 21.6518 10.816 21.4609C10.3346 21.27 9.78964 21.5049 9.59872 21.9863C9.40097 22.4648 9.62899 23.0132 10.1075 23.2104C10.2247 23.2588 10.3458 23.2817 10.4649 23.2817Z" fill="#23C4B3"/>
<path id="Vector_14" d="M15.9019 16.9511L15.8741 16.9638C15.4024 17.1767 15.189 17.7333 15.4019 18.2055C15.5586 18.5527 15.8985 18.7587 16.2554 18.7587C16.3834 18.7587 16.5142 18.7319 16.6387 18.6752L16.2715 17.8129L16.6407 18.6748C17.1168 18.4706 17.3375 17.9194 17.1334 17.4438C16.9293 16.9677 16.378 16.7475 15.9019 16.9511Z" fill="#23C4B3"/>
<path id="Vector_15" d="M32.7626 51.2669C32.9369 51.4085 33.1464 51.4778 33.3544 51.4778C33.6264 51.4778 33.8964 51.3597 34.0819 51.1321C34.4091 50.7307 34.3485 50.1404 33.9472 49.8133L33.9276 49.7976C33.5219 49.4759 32.932 49.5442 32.6103 49.95C32.289 50.3557 32.3573 50.9451 32.7626 51.2669Z" fill="#23C4B3"/>
<path id="Vector_16" d="M15.5576 31.7631L16.4575 31.5004C16.3124 31.0034 15.7914 30.7182 15.2949 30.8632C14.7978 31.0087 14.5126 31.5292 14.6577 32.0263C14.6586 32.0292 14.663 32.0444 14.664 32.0473C14.7866 32.4516 15.1572 32.7114 15.559 32.7114C15.6489 32.7114 15.7397 32.6982 15.83 32.6713C16.3251 32.5229 16.6059 31.9995 16.4584 31.5043L15.5576 31.7631Z" fill="#23C4B3"/>
<path id="Vector_17" d="M13.4565 20.3579C13.4594 20.356 13.4711 20.3481 13.4741 20.3462C13.9008 20.0562 14.0078 19.4795 13.7197 19.0513C13.4316 18.623 12.8461 18.5112 12.4165 18.7978C11.9858 19.085 11.8696 19.667 12.1567 20.0977C12.3374 20.3687 12.6347 20.5156 12.9375 20.5156C13.1162 20.5156 13.2968 20.4644 13.4565 20.3579Z" fill="#23C4B3"/>
<path id="Vector_18" d="M14.145 28.0199C13.7822 27.6497 13.1865 27.6414 12.8168 28.0037C12.4467 28.366 12.4384 28.9569 12.8007 29.327C12.9853 29.5233 13.2343 29.6224 13.4838 29.6224C13.7143 29.6224 13.9448 29.5379 14.1259 29.368C14.5029 29.013 14.5214 28.4198 14.167 28.0428L14.145 28.0199Z" fill="#23C4B3"/>
<path id="Vector_19" d="M30.193 17.5136C30.1549 18.0302 30.5426 18.4795 31.0592 18.5175C31.0636 18.5175 31.0807 18.519 31.0851 18.519C31.1041 18.52 31.1227 18.5205 31.1413 18.5205C31.6339 18.5205 32.0475 18.1367 32.0768 17.6381C32.1071 17.1215 31.7135 16.6777 31.1964 16.6474C30.6828 16.6108 30.2306 16.9975 30.193 17.5136Z" fill="#23C4B3"/>
<path id="Vector_20" d="M48.184 27.5761H48.2128C48.7299 27.5605 49.1372 27.1225 49.122 26.605C49.1069 26.0879 48.6787 25.6797 48.1572 25.6958C47.6396 25.7109 47.2324 26.1426 47.248 26.6601V26.6728C47.2631 27.1806 47.6791 27.5761 48.184 27.5761Z" fill="#23C4B3"/>
<path id="Vector_21" d="M47.8241 23.837C48.3114 23.6622 48.5633 23.1211 48.388 22.6338C48.2157 22.1456 47.6795 21.8897 47.1917 22.063C46.7035 22.2359 46.4481 22.7715 46.6205 23.2593L46.6263 23.2754C46.7635 23.6573 47.1219 23.8931 47.5052 23.8931C47.6107 23.8931 47.7186 23.8751 47.8241 23.837Z" fill="#23C4B3"/>
<path id="Vector_22" d="M43.4966 55.8807L43.5377 55.8837C43.5562 55.8846 43.5743 55.8851 43.5928 55.8851C44.0855 55.8851 44.4991 55.5004 44.5274 55.0018C44.5572 54.4891 44.169 54.0487 43.6583 54.0126C43.1451 53.9716 42.691 54.3495 42.6451 54.8641C42.6002 55.3798 42.981 55.8348 43.4966 55.8807Z" fill="#23C4B3"/>
<path id="Vector_23" d="M39.6132 54.977C39.7202 55.0165 39.83 55.0356 39.9379 55.0356C40.3193 55.0356 40.6777 54.8012 40.8173 54.4223C40.9965 53.9364 40.7485 53.3979 40.2626 53.2182C40.2558 53.2157 40.2377 53.2094 40.2309 53.2069C39.7416 53.039 39.204 53.2978 39.0356 53.7875C38.8671 54.2768 39.1235 54.809 39.6132 54.977Z" fill="#23C4B3"/>
<path id="Vector_24" d="M44.9482 19.056C44.5713 19.411 44.5527 20.0042 44.9072 20.3817C44.9077 20.3822 44.9145 20.389 44.916 20.3905C45.1006 20.5868 45.3496 20.6859 45.5991 20.6859C45.8296 20.6859 46.06 20.6019 46.2412 20.4315C46.6181 20.077 46.6367 19.4837 46.2822 19.1063L46.2734 19.097C45.9184 18.7201 45.3252 18.7015 44.9482 19.056Z" fill="#23C4B3"/>
<path id="Vector_25" d="M42.4794 17.0912L42.4789 17.0937C42.2045 17.0522 41.9145 17.1317 41.6967 17.3368C41.3192 17.6913 41.3012 18.2846 41.6557 18.662C41.6561 18.6625 41.6625 18.6693 41.6644 18.6713C41.8485 18.8676 42.098 18.9667 42.3476 18.9667C42.5775 18.9667 42.8085 18.8822 42.9892 18.7123C43.1903 18.5233 43.288 18.267 43.2836 18.0116C43.2792 17.558 42.9423 17.1601 42.4794 17.0912Z" fill="#23C4B3"/>
<path id="Vector_26" d="M33.9483 17.7206C33.9258 18.2382 34.3267 18.6757 34.8438 18.6981L34.8697 18.6991C34.8789 18.6991 34.8882 18.6996 34.8975 18.6996C35.4029 18.6996 35.8199 18.2977 35.8345 17.7894C35.8501 17.2719 35.4429 16.8402 34.9253 16.8251C34.4078 16.8031 33.9707 17.2035 33.9483 17.7206Z" fill="#23C4B3"/>
<path id="Vector_27" d="M38.6031 16.9014C38.5982 16.9014 38.5938 16.9014 38.589 16.9014C38.0777 16.9014 37.6593 17.312 37.652 17.8252C37.6446 18.3428 38.0582 18.7686 38.5758 18.7764H38.588H38.6021C39.1134 18.7764 39.5318 18.3657 39.5391 17.8525C39.547 17.335 39.1334 16.9092 38.6158 16.9014H38.6031Z" fill="#23C4B3"/>
<path id="Vector_28" d="M44.016 37.7871C44.0487 37.7905 44.081 37.792 44.1132 37.792C44.5878 37.792 44.995 37.4331 45.0448 36.9507L45.0458 36.938C45.099 36.4228 44.7245 35.9624 44.2094 35.9092C43.6938 35.8569 43.2338 36.2309 43.1806 36.7461L43.1796 36.7583C43.1264 37.2734 43.5009 37.7339 44.016 37.7871Z" fill="#23C4B3"/>
<path id="Vector_29" d="M46.3846 53.1542C46.3837 53.1552 46.3768 53.162 46.3754 53.1635C46.0057 53.5253 45.9999 54.1191 46.3622 54.4887C46.5458 54.6762 46.7884 54.7704 47.0316 54.7704C47.2684 54.7704 47.5052 54.6811 47.6878 54.5024L47.6966 54.4936C48.0663 54.1313 48.0726 53.538 47.7103 53.1679C47.348 52.7983 46.7543 52.7924 46.3846 53.1542Z" fill="#23C4B3"/>
<path id="Vector_30" d="M27.0752 47.4545C27.1089 47.4579 27.1421 47.4598 27.1753 47.4598C27.6441 47.4598 28.0489 47.1088 28.105 46.6317C28.1656 46.1176 27.7979 45.6517 27.2837 45.5912L27.2442 45.5873C26.729 45.5394 26.2749 45.9227 26.229 46.4379C26.1836 46.9515 26.5625 47.4052 27.0752 47.4545Z" fill="#23C4B3"/>
<path id="Vector_31" d="M44.4687 39.6244C44.0215 39.8851 43.8706 40.4594 44.1313 40.9066L44.145 40.9296C44.3213 41.2216 44.6313 41.3832 44.9492 41.3832C45.1143 41.3832 45.2808 41.3397 45.4321 41.2484C45.8755 40.9808 46.0186 40.4052 45.751 39.9618C45.4902 39.5145 44.9165 39.3636 44.4687 39.6244Z" fill="#23C4B3"/>
<path id="Vector_32" d="M45.165 34.2753C45.3398 34.4198 45.5518 34.4902 45.7617 34.4902C46.0317 34.4902 46.2998 34.3744 46.4849 34.1503C46.4863 34.1484 46.4956 34.1371 46.4971 34.1352C46.8242 33.7338 46.7637 33.1435 46.3628 32.8168C45.9614 32.4892 45.3706 32.5497 45.0435 32.9511L45.7622 33.5527L45.04 32.9555C44.71 33.3544 44.7661 33.9452 45.165 34.2753Z" fill="#23C4B3"/>
<path id="Vector_33" d="M47.9076 46.9647C47.909 46.971 47.9129 46.9891 47.9139 46.9955C48.0077 47.4369 48.3978 47.7415 48.8324 47.7415C48.8963 47.7415 48.9613 47.7352 49.0262 47.7215C49.5326 47.6136 49.8568 47.1195 49.7494 46.6126C49.6522 46.1043 49.1615 45.7713 48.6527 45.868C48.1439 45.9652 47.8109 46.4564 47.9076 46.9647Z" fill="#23C4B3"/>
<path id="Vector_34" d="M49.6436 50.3408C49.5464 49.8325 49.0557 49.499 48.5469 49.5962C48.0381 49.6933 47.7046 50.1846 47.8023 50.6929C47.8032 50.6992 47.8071 50.7173 47.8081 50.7236C47.9019 51.165 48.2925 51.4697 48.7266 51.4697H48.7319H48.7368C48.7422 51.4697 48.7476 51.4687 48.7529 51.4682C48.7866 51.4673 48.8203 51.4648 48.8545 51.4599C49.229 51.4121 49.5527 51.1416 49.647 50.7529C49.6475 50.751 49.6509 50.7368 49.6514 50.7348L49.6426 50.7324C49.6694 50.6074 49.6719 50.4746 49.6436 50.3408Z" fill="#23C4B3"/>
<path id="Vector_35" d="M46.4473 43.977C46.4521 43.9844 46.4653 44.0015 46.4707 44.0088C46.6548 44.2515 46.9341 44.3789 47.2163 44.3789C47.4141 44.3789 47.6133 44.3164 47.7827 44.188C48.1938 43.8765 48.2749 43.2905 47.9663 42.8779C47.6636 42.4644 47.0835 42.3701 46.665 42.6694C46.2436 42.9702 46.146 43.5557 46.4473 43.977Z" fill="#23C4B3"/>
</g>
</svg>
