<svg width="64" height="58" viewBox="0 0 64 58" fill="none" xmlns="http://www.w3.org/2000/svg">
<g id="website">
<path id="Vector" d="M58.6745 0H5.32516C2.38866 0 0 2.38915 0 5.32516V42.029C0 43.4968 0.596676 44.8274 1.56054 45.7917C1.56103 45.7917 1.56103 45.7922 1.56103 45.7922C1.59179 45.823 1.62353 45.8518 1.65478 45.8816C1.68554 45.9109 1.71532 45.9406 1.74657 45.969C1.74706 45.9695 1.74804 45.9704 1.74901 45.9709C2.69481 46.8298 3.94968 47.3542 5.32468 47.3542H23.4286L22.2635 55.9518H21.2587C20.7411 55.9518 20.3212 56.3712 20.3212 56.8893C20.3212 57.4069 20.7411 57.8268 21.2587 57.8268H42.741C43.259 57.8268 43.6785 57.4069 43.6785 56.8893C43.6785 56.3712 43.259 55.9518 42.741 55.9518H41.7361L40.5715 47.3542H58.6754C60.0504 47.3542 61.3053 46.8298 62.2511 45.9709C62.2521 45.9704 62.2526 45.9699 62.2535 45.969C62.2848 45.9406 62.3146 45.9109 62.3453 45.8816C62.3766 45.8518 62.4083 45.823 62.4386 45.7922C62.4391 45.7922 62.4391 45.7917 62.4396 45.7917C63.403 44.8274 64.0001 43.4968 64.0001 42.029V5.32516C63.9996 2.38915 61.611 0 58.6745 0ZM5.32516 1.87499H58.6745C60.5768 1.87499 62.1246 3.42283 62.1246 5.32516V34.8973H60.5055V5.68844C60.5055 4.499 59.5377 3.53074 58.3478 3.53074H5.65182C4.46238 3.53074 3.49412 4.499 3.49412 5.68844V34.8973H1.87499V5.32516C1.87499 3.42283 3.42283 1.87499 5.32516 1.87499ZM39.844 55.9518H24.1556L25.3202 47.3542H38.679L39.844 55.9518ZM39.4983 45.4787H5.32516C4.50974 45.4787 3.76072 45.1941 3.16941 44.7199C3.15721 44.7097 3.14402 44.6999 3.13182 44.6902C3.12693 44.6863 3.12254 44.6819 3.11766 44.678C2.35887 44.0442 1.87499 43.092 1.87499 42.0281V36.7722H52.3415C52.8591 36.7722 53.279 36.3528 53.279 35.8347C53.279 35.3167 52.8591 34.8973 52.3415 34.8973H23.3568V12.3266C23.3568 11.809 22.9369 11.3891 22.4193 11.3891C21.9017 11.3891 21.4818 11.809 21.4818 12.3266V34.8973H5.36911V5.68844C5.36911 5.53268 5.49606 5.40573 5.65182 5.40573H21.4818V8.43745C21.4818 8.95551 21.9017 9.37494 22.4193 9.37494C22.9374 9.37494 23.3568 8.95551 23.3568 8.43745V5.40573H58.3478C58.5036 5.40573 58.6305 5.53268 58.6305 5.68844V34.8973H56.4455C55.9279 34.8973 55.508 35.3172 55.508 35.8347C55.508 36.3528 55.9279 36.7722 56.4455 36.7722H62.1246V42.0286C62.1246 43.092 61.6408 44.0447 60.882 44.678C60.8776 44.6819 60.8727 44.6863 60.8678 44.6902C60.8556 44.7004 60.8424 44.7097 60.8302 44.7199C60.2389 45.1941 59.4899 45.4792 58.6745 45.4792H39.4983V45.4787Z" fill="#C3CEE2"/>
<path id="Vector_2" d="M31.9998 38.5422C30.5754 38.5422 29.4167 39.7014 29.4167 41.1257C29.4167 42.55 30.5754 43.7087 31.9998 43.7087C33.4241 43.7087 34.5828 42.55 34.5828 41.1257C34.5828 39.7014 33.4241 38.5422 31.9998 38.5422ZM31.9998 41.8337C31.6096 41.8337 31.2917 41.5164 31.2917 41.1257C31.2917 40.7351 31.6096 40.4172 31.9998 40.4172C32.3899 40.4172 32.7078 40.7351 32.7078 41.1257C32.7078 41.5164 32.3899 41.8337 31.9998 41.8337Z" fill="#C3CEE2"/>
<path id="Vector_3" d="M9.48438 7.07764C7.99023 7.07764 6.77441 8.29297 6.77441 9.78809C6.77441 11.2822 7.99023 12.498 9.48438 12.498C10.9785 12.498 12.1938 11.2822 12.1938 9.78711C12.1938 8.29297 10.9785 7.07764 9.48438 7.07764ZM9.48438 10.623C9.02393 10.623 8.64941 10.2485 8.64941 9.78711C8.64941 9.32715 9.02393 8.95264 9.48438 8.95264C9.94434 8.95264 10.3188 9.32715 10.3188 9.78809C10.3188 10.2485 9.94434 10.623 9.48438 10.623Z" fill="#23C4B3"/>
<path id="Vector_4" d="M18.7427 8.84985H14.3262C13.8086 8.84985 13.3887 9.26929 13.3887 9.78735C13.3887 10.3054 13.8086 10.7249 14.3262 10.7249H18.7427C19.2603 10.7249 19.6802 10.3054 19.6802 9.78735C19.6802 9.26929 19.2603 8.84985 18.7427 8.84985Z" fill="#23C4B3"/>
<path id="Vector_5" d="M26.4836 9.59472H55.5157C56.0333 9.59472 56.4532 9.17529 56.4532 8.65722C56.4532 8.13965 56.0333 7.71973 55.5157 7.71973H26.4836C25.9661 7.71973 25.5461 8.13965 25.5461 8.65722C25.5461 9.17529 25.9661 9.59472 26.4836 9.59472Z" fill="#23C4B3"/>
<path id="Vector_6" d="M26.4836 13.2639H37.304C37.8215 13.2639 38.2415 12.8445 38.2415 12.3264C38.2415 11.8088 37.8215 11.3889 37.304 11.3889H26.4836C25.9661 11.3889 25.5461 11.8088 25.5461 12.3264C25.5461 12.8445 25.9661 13.2639 26.4836 13.2639Z" fill="#23C4B3"/>
<path id="Vector_7" d="M26.4836 18.9089H55.5157C56.0333 18.9089 56.4532 18.4895 56.4532 17.9714C56.4532 17.4534 56.0333 17.0339 55.5157 17.0339H26.4836C25.9661 17.0339 25.5461 17.4534 25.5461 17.9714C25.5461 18.4895 25.9661 18.9089 26.4836 18.9089Z" fill="#23C4B3"/>
<path id="Vector_8" d="M26.4836 22.5784H43.7913C44.3088 22.5784 44.7288 22.1584 44.7288 21.6409C44.7288 21.1228 44.3088 20.7034 43.7913 20.7034H26.4836C25.9661 20.7034 25.5461 21.1228 25.5461 21.6409C25.5461 22.1584 25.9661 22.5784 26.4836 22.5784Z" fill="#23C4B3"/>
<path id="Vector_9" d="M26.4836 28.9138H55.5157C56.0333 28.9138 56.4532 28.4944 56.4532 27.9763C56.4532 27.4583 56.0333 27.0388 55.5157 27.0388H26.4836C25.9661 27.0388 25.5461 27.4583 25.5461 27.9763C25.5461 28.4944 25.9661 28.9138 26.4836 28.9138Z" fill="#23C4B3"/>
<path id="Vector_10" d="M52.6187 30.7083H26.4836C25.9661 30.7083 25.5461 31.1277 25.5461 31.6457C25.5461 32.1633 25.9661 32.5832 26.4836 32.5832H52.6187C53.1363 32.5832 53.5562 32.1633 53.5562 31.6457C53.5562 31.1277 53.1363 30.7083 52.6187 30.7083Z" fill="#23C4B3"/>
<path id="Vector_11" d="M9.48438 13.928C7.99023 13.928 6.77441 15.1438 6.77441 16.6389C6.77441 18.1331 7.99023 19.3489 9.48438 19.3489C10.9785 19.3489 12.1938 18.1331 12.1938 16.6379C12.1938 15.1438 10.9785 13.928 9.48438 13.928ZM9.48438 17.4734C9.02393 17.4734 8.64941 17.0989 8.64941 16.6379C8.64941 16.1775 9.02393 15.803 9.48438 15.803C9.94434 15.803 10.3188 16.1775 10.3188 16.6389C10.3188 17.0989 9.94434 17.4734 9.48438 17.4734Z" fill="#23C4B3"/>
<path id="Vector_12" d="M18.7427 15.7009H14.3262C13.8086 15.7009 13.3887 16.1204 13.3887 16.6384C13.3887 17.1565 13.8086 17.5759 14.3262 17.5759H18.7427C19.2603 17.5759 19.6802 17.1565 19.6802 16.6384C19.6802 16.1204 19.2603 15.7009 18.7427 15.7009Z" fill="#23C4B3"/>
<path id="Vector_13" d="M9.48438 20.9031C7.99023 20.9031 6.77441 22.1189 6.77441 23.614C6.77441 25.1082 7.99023 26.3235 9.48438 26.3235C10.9785 26.3235 12.1938 25.1082 12.1938 23.613C12.1938 22.1189 10.9785 20.9031 9.48438 20.9031ZM9.48438 24.4485C9.02393 24.4485 8.64941 24.074 8.64941 23.613C8.64941 23.1526 9.02393 22.7781 9.48438 22.7781C9.94434 22.7781 10.3188 23.1526 10.3188 23.614C10.3188 24.074 9.94434 24.4485 9.48438 24.4485Z" fill="#23C4B3"/>
<path id="Vector_14" d="M18.7427 22.676H14.3262C13.8086 22.676 13.3887 23.0955 13.3887 23.6135C13.3887 24.1316 13.8086 24.551 14.3262 24.551H18.7427C19.2603 24.551 19.6802 24.1316 19.6802 23.6135C19.6802 23.0955 19.2603 22.676 18.7427 22.676Z" fill="#23C4B3"/>
<path id="Vector_15" d="M9.48438 27.9417C7.99023 27.9417 6.77441 29.1575 6.77441 30.6526C6.77441 32.1467 7.99023 33.3625 9.48438 33.3625C10.9785 33.3625 12.1938 32.1467 12.1938 30.6516C12.1938 29.1575 10.9785 27.9417 9.48438 27.9417ZM9.48438 31.4871C9.02393 31.4871 8.64941 31.1125 8.64941 30.6516C8.64941 30.1912 9.02393 29.8167 9.48438 29.8167C9.94434 29.8167 10.3188 30.1912 10.3188 30.6521C10.3188 31.1125 9.94434 31.4871 9.48438 31.4871Z" fill="#23C4B3"/>
<path id="Vector_16" d="M18.7427 29.7146H14.3262C13.8086 29.7146 13.3887 30.134 13.3887 30.6521C13.3887 31.1697 13.8086 31.5896 14.3262 31.5896H18.7427C19.2603 31.5896 19.6802 31.1697 19.6802 30.6521C19.6802 30.134 19.2603 29.7146 18.7427 29.7146Z" fill="#23C4B3"/>
</g>
</svg>
